PathFileType	4	(X/Y/Z)	..\data\2014031\dynamic\2014031_C4_02.trc
DataRate	CameraRate	NumFrames	NumMarkers	Units	OrigDataRate	OrigDataStartFrame	OrigNumFrames
100.000000	100.000000	4	52	mm	100.000000	21	170
Frame#	Time	L_IAS			L_IPS			R_IPS			R_IAS			L_FTC			L_FLE			L_FME			L_FAX			L_TTC			L_FAL			L_TAM			L_FCC			L_FM1			L_FM2			L_FM5			R_FTC			R_FLE			R_FME			R_FAX			R_TTC			R_FAL			R_TAM			R_FCC			R_FM1			R_FM2			R_FM5			CV7			TV10			SXS			SJN			L_SIA			L_SRS			L_SAA			L_SAE			L_HLE			L_HME			L_UOA			L_RSP			L_UHE			L_HM2			L_HM5			R_SIA			R_SRS			R_SAA			R_SAE			R_HLE			R_HME			R_UOA			R_RSP			R_UHE			R_HM2			R_HM5			
		X1	Y1	Z1	X2	Y2	Z2	X3	Y3	Z3	X4	Y4	Z4	X5	Y5	Z5	X6	Y6	Z6	X7	Y7	Z7	X8	Y8	Z8	X9	Y9	Z9	X10	Y10	Z10	X11	Y11	Z11	X12	Y12	Z12	X13	Y13	Z13	X14	Y14	Z14	X15	Y15	Z15	X16	Y16	Z16	X17	Y17	Z17	X18	Y18	Z18	X19	Y19	Z19	X20	Y20	Z20	X21	Y21	Z21	X22	Y22	Z22	X23	Y23	Z23	X24	Y24	Z24	X25	Y25	Z25	X26	Y26	Z26	X27	Y27	Z27	X28	Y28	Z28	X29	Y29	Z29	X30	Y30	Z30	X31	Y31	Z31	X32	Y32	Z32	X33	Y33	Z33	X34	Y34	Z34	X35	Y35	Z35	X36	Y36	Z36	X37	Y37	Z37	X38	Y38	Z38	X39	Y39	Z39	X40	Y40	Z40	X41	Y41	Z41	X42	Y42	Z42	X43	Y43	Z43	X44	Y44	Z44	X45	Y45	Z45	X46	Y46	Z46	X47	Y47	Z47	X48	Y48	Z48	X49	Y49	Z49	X50	Y50	Z50	X51	Y51	Z51	X52	Y52	Z52	

22	0.21	46.83879470825196	951.0901489257815	-341.8692932128907	-150.7068176269532	978.2526855468752	-299.6109619140626	-159.8657684326172	971.271179199219	-193.7277526855469	26.0589828491211	941.9346313476565	-117.8407821655274	-38.62595748901368	876.5026855468752	-429.6582946777345	69.62178039550783	470.0445556640626	-378.6403503417969	63.11505508422853	467.418914794922	-248.4574584960938	65.69252014160158	409.3163146972657	-377.5581970214844	125.1228790283203	416.8608398437501	-315.4110717773438	40.3028678894043	65.58034515380861	-333.6785888671876	66.5419158935547	85.34503173828126	-244.1935119628907	-4.032008171081544	18.22124290466309	-286.5779113769532	189.4700012207032	22.05034446716309	-245.3020477294922	197.9523468017579	36.64423751831055	-304.3580932617188	156.1415557861328	21.85748672485352	-357.6094360351563	-65.70691680908205	849.9013671875002	-56.86427307128908	-71.29548645019533	452.5908508300782	-95.36695861816408	-49.28179168701173	433.7064514160157	-222.3486633300782	-107.6806869506836	409.3313903808595	-92.15402221679689	-53.11331176757814	366.7599182128907	-139.6028442382813	-377.3287963867188	201.2059020996094	-132.6767883300782	-332.1263732910157	180.3436126708985	-210.0253448486329	-428.5824584960939	198.0299835205079	-194.1644287109376	-331.5624389648438	39.71014785766602	-190.2468566894532	-327.8479003906251	48.37064361572267	-130.2039947509766	-378.1954040527344	66.96756744384767	-96.17002105712893	-87.18724060058595	1497.382568359375	-234.2042388916016	-168.7864074707032	1218.614868164063	-239.2334289550782	54.24290466308595	1214.05859375	-236.9112548828126	24.44082641601563	1407.245239257813	-238.3833312988282	-173.5752258300782	1249.216918945313	-346.0557250976563	-122.0639572143555	1402.909301757813	-373.2022705078126	-73.59270477294923	1391.277221679688	-432.9203491210939	-26.77952384948731	1392.304565429688	-434.3236083984376	-102.4034423828125	1064.43994140625	-498.867156982422	-139.2985992431641	1049.951904296875	-423.5540161132814	-141.199935913086	1045.28369140625	-473.3082580566407	-41.42778778076173	804.6956787109377	-451.4447326660157	-70.45635223388673	812.6820068359377	-527.7521972656251	-34.68439483642579	714.0166625976564	-458.8848266601564	-95.89275360107423	739.7900390625001	-535.3737792968751	-172.4222259521485	1249.696899414063	-131.5512237548828	-125.7555236816407	1406.948608398438	-108.5680084228516	-69.01226806640626	1405.267211914063	-49.33989715576173	-24.03974342346192	1395.648071289063	-35.91616821289063	-38.65891265869141	1058.178466796875	34.38719177246094	-73.59743499755861	1039.068603515625	-42.63382720947266	-78.32032775878908	1024.226440429688	-0.324992060661316	133.2218017578125	871.9666748046877	-23.88069343566895	95.73182678222658	843.0540771484377	38.45102310180665	193.6403808593751	800.6558227539065	-28.30114555358887	123.5021133422852	762.3994750976564	32.78665161132813	
23	0.22	58.21517181396486	951.9796142578127	-342.3745727539063	-139.1160125732422	979.9654541015627	-300.9917907714844	-148.8802642822266	972.625427246094	-195.2335815429688	36.59813308715821	943.084411621094	-118.4696350097657	-27.52444458007813	878.0615234375002	-430.6405639648439	73.93068695068361	469.7662048339845	-378.8418579101563	66.27550506591798	467.274139404297	-248.7452850341797	69.14436340332033	408.9568786621095	-377.7131042480469	128.5309143066407	415.9993896484376	-315.3975219726563	40.77993774414063	65.61834716796876	-333.4858398437501	66.68568420410158	85.25136566162111	-244.0199127197266	-3.77941918373108	18.23846054077149	-286.5003051757813	189.7944030761719	22.01992797851563	-245.1209106445313	198.4646759033204	36.62850570678712	-304.2758789062501	156.3381042480469	22.13897323608399	-357.7424316406251	-54.75362777709962	850.5134887695315	-58.04024124145509	-48.58735656738283	453.587615966797	-95.81372070312501	-24.98694801330567	434.9167785644532	-222.8234100341797	-84.28952026367189	411.1638488769532	-92.65638732910158	-29.90715217590333	368.1596069335938	-140.0365753173828	-357.5307312011719	208.5936584472657	-134.2577362060547	-312.1049499511719	186.2194366455078	-211.0839385986329	-408.3188476562501	206.3531494140626	-196.254623413086	-315.1245422363282	44.94227600097657	-189.2458801269532	-311.6934509277344	53.2255096435547	-129.2669067382813	-362.0041809082032	74.84991455078126	-96.38433837890628	-75.79734039306642	1498.805786132813	-235.4158477783204	-157.2183380126953	1220.030639648438	-241.0300903320313	65.7971649169922	1215.662475585938	-237.4359588623047	35.92800903320313	1408.765502929688	-239.1715850830079	-161.0804748535157	1250.516479492188	-348.2838439941407	-109.9787902832032	1404.276977539063	-374.5862121582032	-61.21607589721681	1392.839599609375	-434.0987854003907	-14.25132942199707	1393.84619140625	-435.1870117187501	-86.58975982666017	1065.290649414063	-500.5648498535157	-124.2383041381836	1050.497680664063	-425.7541809082032	-125.4729156494141	1045.605224609375	-475.513641357422	-21.82776069641114	806.6291503906252	-451.3086547851564	-50.52656173706056	813.714538574219	-527.8236694335939	-13.2144250869751	716.2345581054689	-458.2659606933595	-74.5264129638672	740.2957763671876	-535.1349487304689	-161.4342498779297	1250.985717773438	-133.5610504150391	-114.9686279296875	1408.279907226563	-110.1135864257813	-58.63007736206056	1406.729370117188	-50.57133865356447	-13.49726104736328	1397.121948242188	-36.80651473999024	-29.89123535156251	1059.656860351563	33.14819717407227	-64.53357696533205	1040.861328125	-44.01029968261719	-69.63198852539064	1026.119873046875	-1.738168716430665	139.9275970458985	871.2161865234377	-24.11872863769532	102.1429061889649	843.0942382812502	38.51176834106446	198.7482452392579	798.3320312500002	-28.92207336425782	128.5025329589844	761.9415893554689	33.06465530395509	
24	0.23	69.39639282226564	952.7920532226565	-342.9153747558594	-127.6234893798828	981.4314575195315	-302.1882324218751	-138.0570220947266	973.9221801757815	-196.6131286621094	47.01287841796876	944.2459106445315	-119.0257263183594	-16.76170730590821	879.4769287109377	-431.5559997558595	78.00022125244142	469.4896240234376	-379.0121459960938	69.35469818115236	467.128143310547	-248.9932098388672	72.37998199462892	408.6006774902345	-377.8470458984376	131.7073516845703	415.1604003906251	-315.3845825195313	41.18248367309571	65.63686370849611	-333.3158264160157	66.79821777343751	85.13745117187501	-243.8531646728516	-3.616510391235352	18.27657508850098	-286.4099121093751	190.0611267089844	21.9323844909668	-244.9785308837891	198.8600006103516	36.53279113769532	-304.1930847167969	156.4451293945313	22.29496002197266	-357.8262023925782	-43.84680557250977	851.2056884765627	-59.11769485473634	-25.98965644836426	454.9812927246095	-96.32540130615237	-0.9172240495681765	436.7362060546876	-223.3046264648438	-60.92229461669923	413.2283325195314	-93.27739715576173	-6.586440563201906	369.9840087890626	-140.6658935546875	-336.6785888671876	214.9130401611329	-135.9744110107422	-291.0894470214844	191.4335021972657	-212.4164733886719	-387.1690368652345	212.9561614990235	-198.3247222900391	-295.9423828125001	49.96175765991212	-188.2714996337891	-292.6766052246094	58.14147186279298	-128.4235992431641	-343.0781250000001	82.12903594970705	-96.46443176269534	-64.39443206787111	1500.185668945313	-236.5174560546876	-145.7953643798828	1221.444946289063	-242.7750549316407	77.15511322021486	1217.106201171875	-237.9098510742188	47.36474990844727	1410.166137695313	-239.872055053711	-148.6988372802735	1251.790771484375	-350.4517822265626	-97.95303344726565	1405.617553710938	-375.9057617187501	-48.88970947265626	1394.33544921875	-435.208221435547	-1.750629544258118	1395.29345703125	-435.9556274414064	-70.59473419189455	1066.06640625	-502.2322387695314	-109.051628112793	1050.914184570313	-427.9605102539064	-109.5963821411133	1045.835815429688	-477.7196350097657	-1.891587138175965	808.6069946289065	-451.1018371582032	-30.28630828857423	814.7530517578127	-527.7993774414064	8.877750396728517	718.6015625000001	-457.645965576172	-52.66909408569337	740.7717895507814	-534.7890014648439	-150.6150665283203	1252.2216796875	-135.6310424804688	-104.259880065918	1409.557250976563	-111.6080398559571	-48.31728744506837	1408.048095703125	-51.71850585937501	-3.017216682434083	1398.414916992188	-37.58648681640626	-21.38243293762207	1060.999389648438	31.99897193908692	-55.6774368286133	1042.493774414063	-45.29895782470704	-61.12351608276369	1027.856323242188	-3.07588028907776	146.4368896484375	870.3835449218752	-24.26505851745606	108.3563919067383	843.0549316406252	38.65984344482423	203.7064208984376	796.0422363281252	-29.38830566406251	133.3151397705078	761.4467773437501	33.43571090698243	
25	0.24	80.38970947265626	953.5708618164065	-343.5362548828126	-116.220443725586	982.6503906250002	-303.1950683593751	-127.3677597045899	975.169616699219	-197.8429260253907	57.35010147094728	945.4366455078127	-119.5632934570313	-6.333381652832033	880.748474121094	-432.4209289550782	81.8975067138672	469.2229003906251	-379.1471252441407	72.45393371582033	466.9901428222657	-249.1901397705079	75.46883392333986	408.2628479003907	-377.9527282714844	134.723129272461	414.3503417968751	-315.3606262207032	41.52047729492188	65.64592742919923	-333.1610107421876	66.88393402099611	85.00005340576173	-243.6791992187501	-3.539501667022706	18.34001159667969	-286.3105773925782	190.2684020996094	21.76180076599121	-244.8599853515626	199.1520080566407	36.34387207031251	-304.1007690429688	156.4754180908203	22.33283615112305	-357.8681640625001	-32.90431213378907	852.004577636719	-60.0990333557129	-3.59295415878296	456.7706604003907	-96.9049987792969	22.83449745178223	439.128387451172	-223.7896728515626	-37.69744491577149	415.517059326172	-94.01187133789064	16.76903152465821	372.2173767089844	-141.449462890625	-314.8342285156251	219.9787902832032	-137.7681274414063	-269.1262817382813	195.8282623291016	-213.9646148681641	-365.2163696289063	217.6886596679688	-200.3125762939454	-274.1009826660157	54.5278778076172	-187.4498443603516	-270.8622131347657	62.8827590942383	-127.7960281372071	-321.4757080078126	88.47422790527345	-96.4829025268555	-52.98414993286134	1501.51806640625	-237.5085906982422	-134.5104064941407	1222.850708007813	-244.4485931396485	88.32116699218751	1218.39111328125	-238.3512115478516	58.75243377685548	1411.451904296875	-240.4914550781251	-136.4611511230469	1253.060668945313	-352.5338745117188	-85.99423217773439	1406.935302734375	-377.1601562500001	-36.6162452697754	1395.7705078125	-436.2506103515626	10.70919895172119	1396.660400390625	-436.6350097656251	-54.42824935913087	1066.78125	-503.8438415527345	-93.73065185546876	1051.215087890625	-430.1345214843751	-93.56673431396486	1045.98681640625	-479.8881225585939	18.33934020996094	810.648132324219	-450.8142089843751	-9.762430191040041	815.8310546875002	-527.6754760742189	31.5205192565918	721.1413574218751	-457.0202636718751	-30.35414695739747	741.2694091796876	-534.3512573242189	-139.9363098144532	1253.421752929688	-137.7049102783203	-93.60290527343751	1410.78564453125	-113.035629272461	-38.0411605834961	1409.235473632813	-52.78189849853517	7.422116279602053	1399.541381835938	-38.27015686035157	-13.1389389038086	1062.220458984375	30.92313385009766	-47.01969528198243	1043.980346679688	-46.52553176879884	-52.79568481445314	1029.449951171875	-4.362074375152589	152.7570190429688	869.479187011719	-24.30731582641602	114.3497161865235	842.9364013671877	38.88018417358399	208.5482482910157	793.8171997070315	-29.64678382873536	137.936996459961	760.9178466796876	33.89292144775391	
